<svg width="1003" height="508" viewBox="0 0 1003 508" fill="none" xmlns="http://www.w3.org/2000/svg">
<path d="M327.002 147.42C325.462 147.42 324.482 146.72 324.062 145.32L309.782 89.67C309.642 89.11 309.292 88.83 308.732 88.83H305.582C304.882 88.83 304.532 89.18 304.532 89.88V144.9C304.532 145.6 304.252 146.23 303.692 146.79C303.272 147.21 302.712 147.42 302.012 147.42H272.192C271.492 147.42 270.862 147.21 270.302 146.79C269.882 146.23 269.672 145.6 269.672 144.9V2.93998C269.672 2.23998 269.882 1.67998 270.302 1.25997C270.862 0.699973 271.492 0.419973 272.192 0.419973H317.342C325.462 0.419973 332.672 2.37997 338.972 6.29997C345.272 10.08 350.102 15.47 353.462 22.47C356.962 29.33 358.712 37.17 358.712 45.99C358.712 53.83 357.242 60.9 354.302 67.2C351.502 73.36 347.512 78.33 342.332 82.11C342.052 82.25 341.842 82.46 341.702 82.74C341.562 82.88 341.562 83.09 341.702 83.37L359.762 144.48L359.972 145.32C359.972 146.72 359.202 147.42 357.662 147.42H327.002ZM305.582 30.24C304.882 30.24 304.532 30.59 304.532 31.29V61.11C304.532 61.81 304.882 62.16 305.582 62.16H311.462C315.242 62.16 318.252 60.76 320.492 57.96C322.732 55.16 323.852 51.31 323.852 46.41C323.852 41.23 322.732 37.24 320.492 34.44C318.252 31.64 315.242 30.24 311.462 30.24H305.582ZM407.106 37.17C419.986 37.17 430.346 40.39 438.186 46.83C446.166 53.27 450.156 61.74 450.156 72.24V144.9C450.156 145.6 449.876 146.23 449.316 146.79C448.896 147.21 448.336 147.42 447.636 147.42H417.816C417.116 147.42 416.486 147.21 415.926 146.79C415.506 146.23 415.296 145.6 415.296 144.9V139.86C415.296 139.44 415.156 139.23 414.876 139.23C414.596 139.09 414.316 139.23 414.036 139.65C409.276 145.95 401.856 149.1 391.776 149.1C372.456 149.1 362.796 138.11 362.796 116.13C362.796 106.75 364.546 99.61 368.046 94.71C371.546 89.81 376.306 86.59 382.326 85.05C388.486 83.37 396.326 82.53 405.846 82.53H414.246C414.946 82.53 415.296 82.18 415.296 81.48V76.44C415.296 73.64 414.526 71.4 412.986 69.72C411.446 67.9 409.486 66.99 407.106 66.99C405.286 66.99 403.746 67.55 402.486 68.67C401.366 69.65 400.596 71.12 400.176 73.08C400.036 74.76 399.196 75.6 397.656 75.6L366.996 75.39C365.316 75.39 364.476 74.55 364.476 72.87C365.176 61.81 369.376 53.13 377.076 46.83C384.916 40.39 394.926 37.17 407.106 37.17ZM405.846 123.27C408.226 123.27 410.396 122.5 412.356 120.96C414.316 119.28 415.296 117.18 415.296 114.66V106.89C415.296 106.19 414.946 105.84 414.246 105.84H407.946C405.146 105.84 402.836 106.68 401.016 108.36C399.336 110.04 398.496 112.28 398.496 115.08C398.496 117.74 399.196 119.77 400.596 121.17C401.996 122.57 403.746 123.27 405.846 123.27ZM509.172 38.85C509.872 38.85 510.432 39.13 510.852 39.69C511.412 40.11 511.692 40.67 511.692 41.37V60.48C511.692 61.18 511.412 61.81 510.852 62.37C510.432 62.79 509.872 63 509.172 63H499.092C498.392 63 498.042 63.35 498.042 64.05V144.9C498.042 145.6 497.762 146.23 497.202 146.79C496.782 147.21 496.222 147.42 495.522 147.42H465.912C465.212 147.42 464.582 147.21 464.022 146.79C463.602 146.23 463.392 145.6 463.392 144.9V64.05C463.392 63.35 463.042 63 462.342 63H456.672C455.972 63 455.342 62.79 454.782 62.37C454.362 61.81 454.152 61.18 454.152 60.48V41.37C454.152 40.67 454.362 40.11 454.782 39.69C455.342 39.13 455.972 38.85 456.672 38.85H462.342C463.042 38.85 463.392 38.5 463.392 37.8V31.5C463.392 19.88 466.402 11.76 472.422 7.13997C478.582 2.37998 488.032 -2.16961e-05 500.772 -2.16961e-05L507.072 0.209976C508.612 0.209976 509.382 1.04998 509.382 2.72998V21.84C509.382 23.52 508.682 24.36 507.282 24.36C504.342 24.5 502.032 25.48 500.352 27.3C498.812 29.12 498.042 31.5 498.042 34.44V37.8C498.042 38.5 498.392 38.85 499.092 38.85H509.172ZM558.667 37.17C571.547 37.17 581.907 40.39 589.747 46.83C597.727 53.27 601.717 61.74 601.717 72.24V144.9C601.717 145.6 601.437 146.23 600.877 146.79C600.457 147.21 599.897 147.42 599.197 147.42H569.377C568.677 147.42 568.047 147.21 567.487 146.79C567.067 146.23 566.857 145.6 566.857 144.9V139.86C566.857 139.44 566.717 139.23 566.437 139.23C566.157 139.09 565.877 139.23 565.597 139.65C560.837 145.95 553.417 149.1 543.337 149.1C524.017 149.1 514.357 138.11 514.357 116.13C514.357 106.75 516.107 99.61 519.607 94.71C523.107 89.81 527.867 86.59 533.887 85.05C540.047 83.37 547.887 82.53 557.407 82.53H565.807C566.507 82.53 566.857 82.18 566.857 81.48V76.44C566.857 73.64 566.087 71.4 564.547 69.72C563.007 67.9 561.047 66.99 558.667 66.99C556.847 66.99 555.307 67.55 554.047 68.67C552.927 69.65 552.157 71.12 551.737 73.08C551.597 74.76 550.757 75.6 549.217 75.6L518.557 75.39C516.877 75.39 516.037 74.55 516.037 72.87C516.737 61.81 520.937 53.13 528.637 46.83C536.477 40.39 546.487 37.17 558.667 37.17ZM557.407 123.27C559.787 123.27 561.957 122.5 563.917 120.96C565.877 119.28 566.857 117.18 566.857 114.66V106.89C566.857 106.19 566.507 105.84 565.807 105.84H559.507C556.707 105.84 554.397 106.68 552.577 108.36C550.897 110.04 550.057 112.28 550.057 115.08C550.057 117.74 550.757 119.77 552.157 121.17C553.557 122.57 555.307 123.27 557.407 123.27ZM691.813 100.17C691.813 100.87 691.533 101.5 690.973 102.06C690.553 102.48 689.993 102.69 689.293 102.69H643.513C642.813 102.69 642.463 103.04 642.463 103.74V110.04C642.463 112.84 643.093 115.08 644.353 116.76C645.753 118.44 647.573 119.28 649.813 119.28C651.773 119.28 653.383 118.58 654.643 117.18C655.903 115.78 656.743 114.03 657.163 111.93C657.303 110.39 658.213 109.62 659.893 109.62L688.873 111.3C689.573 111.3 690.133 111.58 690.553 112.14C691.113 112.56 691.323 113.19 691.183 114.03C689.923 137.41 676.133 149.1 649.813 149.1C636.513 149.1 626.153 145.95 618.733 139.65C611.313 133.21 607.603 124.25 607.603 112.77V73.5C607.603 62.58 611.313 53.83 618.733 47.25C626.293 40.53 636.653 37.17 649.813 37.17C662.973 37.17 673.263 40.46 680.683 47.04C688.103 53.62 691.813 62.44 691.813 73.5V100.17ZM649.813 66.99C647.573 66.99 645.753 67.83 644.353 69.51C643.093 71.19 642.463 73.43 642.463 76.23V82.74C642.463 83.44 642.813 83.79 643.513 83.79H655.903C656.603 83.79 656.953 83.44 656.953 82.74V76.23C656.953 73.57 656.253 71.4 654.853 69.72C653.593 67.9 651.913 66.99 649.813 66.99ZM700.274 147.42C699.574 147.42 698.944 147.21 698.384 146.79C697.964 146.23 697.754 145.6 697.754 144.9V2.93998C697.754 2.23998 697.964 1.67998 698.384 1.25997C698.944 0.699973 699.574 0.419973 700.274 0.419973H730.094C730.794 0.419973 731.354 0.699973 731.774 1.25997C732.334 1.67998 732.614 2.23998 732.614 2.93998V144.9C732.614 145.6 732.334 146.23 731.774 146.79C731.354 147.21 730.794 147.42 730.094 147.42H700.274ZM299.783 307.1C286.483 307.1 275.843 303.18 267.863 295.34C259.883 287.5 255.893 277.07 255.893 264.05V199.58C255.893 186.42 259.883 175.99 267.863 168.29C275.843 160.59 286.483 156.74 299.783 156.74C313.083 156.74 323.723 160.59 331.703 168.29C339.823 175.99 343.883 186.42 343.883 199.58V201.47C343.883 202.17 343.603 202.8 343.043 203.36C342.623 203.78 342.063 203.99 341.363 203.99L311.543 205.25C309.863 205.25 309.023 204.41 309.023 202.73V197.06C309.023 193.84 308.183 191.32 306.503 189.5C304.823 187.54 302.583 186.56 299.783 186.56C297.123 186.56 294.953 187.54 293.273 189.5C291.593 191.32 290.753 193.84 290.753 197.06V266.99C290.753 270.07 291.593 272.59 293.273 274.55C294.953 276.37 297.123 277.28 299.783 277.28C302.583 277.28 304.823 276.37 306.503 274.55C308.183 272.59 309.023 270.07 309.023 266.99V260.9C309.023 260.2 309.233 259.64 309.653 259.22C310.213 258.66 310.843 258.38 311.543 258.38L341.363 259.64C342.063 259.64 342.623 259.92 343.043 260.48C343.603 260.9 343.883 261.46 343.883 262.16V264.05C343.883 277.07 339.823 287.5 331.703 295.34C323.723 303.18 313.083 307.1 299.783 307.1ZM391.715 307.1C378.275 307.1 367.845 303.88 360.425 297.44C353.005 291 349.295 282.11 349.295 270.77V231.5C349.295 220.58 353.005 211.83 360.425 205.25C367.985 198.53 378.415 195.17 391.715 195.17C405.015 195.17 415.375 198.46 422.795 205.04C430.355 211.62 434.135 220.44 434.135 231.5V270.77C434.135 282.11 430.425 291 423.005 297.44C415.585 303.88 405.155 307.1 391.715 307.1ZM391.715 277.07C393.955 277.07 395.775 276.23 397.175 274.55C398.575 272.87 399.275 270.63 399.275 267.83V234.23C399.275 231.57 398.575 229.4 397.175 227.72C395.775 225.9 393.955 224.99 391.715 224.99C389.475 224.99 387.655 225.9 386.255 227.72C384.855 229.4 384.155 231.57 384.155 234.23V267.83C384.155 270.63 384.855 272.87 386.255 274.55C387.655 276.23 389.475 277.07 391.715 277.07ZM494.016 195.38C497.516 195.38 500.526 196.15 503.046 197.69C504.026 198.53 504.446 199.58 504.306 200.84L499.476 230.45C499.336 231.99 498.356 232.55 496.536 232.13C494.576 231.57 492.826 231.29 491.286 231.29C488.906 231.29 486.666 231.71 484.566 232.55C482.046 233.39 479.946 235.14 478.266 237.8C476.726 240.46 475.956 243.4 475.956 246.62V302.69C475.956 303.39 475.676 304.02 475.116 304.58C474.696 305 474.136 305.21 473.436 305.21H443.616C442.916 305.21 442.286 305 441.726 304.58C441.306 304.02 441.096 303.39 441.096 302.69V199.37C441.096 198.67 441.306 198.11 441.726 197.69C442.286 197.13 442.916 196.85 443.616 196.85H473.436C474.136 196.85 474.696 197.13 475.116 197.69C475.676 198.11 475.956 198.67 475.956 199.37V206.09C475.956 206.65 476.026 207 476.166 207.14C476.446 207.14 476.726 206.93 477.006 206.51C480.786 199.09 486.456 195.38 494.016 195.38ZM560.363 195.38C563.863 195.38 566.873 196.15 569.393 197.69C570.373 198.53 570.793 199.58 570.653 200.84L565.823 230.45C565.683 231.99 564.703 232.55 562.883 232.13C560.923 231.57 559.173 231.29 557.633 231.29C555.253 231.29 553.013 231.71 550.913 232.55C548.393 233.39 546.293 235.14 544.613 237.8C543.073 240.46 542.303 243.4 542.303 246.62V302.69C542.303 303.39 542.023 304.02 541.463 304.58C541.043 305 540.483 305.21 539.783 305.21H509.963C509.263 305.21 508.633 305 508.073 304.58C507.653 304.02 507.443 303.39 507.443 302.69V199.37C507.443 198.67 507.653 198.11 508.073 197.69C508.633 197.13 509.263 196.85 509.963 196.85H539.783C540.483 196.85 541.043 197.13 541.463 197.69C542.023 198.11 542.303 198.67 542.303 199.37V206.09C542.303 206.65 542.373 207 542.513 207.14C542.793 207.14 543.073 206.93 543.353 206.51C547.133 199.09 552.803 195.38 560.363 195.38ZM655.309 258.17C655.309 258.87 655.029 259.5 654.469 260.06C654.049 260.48 653.489 260.69 652.789 260.69H607.009C606.309 260.69 605.959 261.04 605.959 261.74V268.04C605.959 270.84 606.589 273.08 607.849 274.76C609.249 276.44 611.069 277.28 613.309 277.28C615.269 277.28 616.879 276.58 618.139 275.18C619.399 273.78 620.239 272.03 620.659 269.93C620.799 268.39 621.709 267.62 623.389 267.62L652.369 269.3C653.069 269.3 653.629 269.58 654.049 270.14C654.609 270.56 654.819 271.19 654.679 272.03C653.419 295.41 639.629 307.1 613.309 307.1C600.009 307.1 589.649 303.95 582.229 297.65C574.809 291.21 571.099 282.25 571.099 270.77V231.5C571.099 220.58 574.809 211.83 582.229 205.25C589.789 198.53 600.149 195.17 613.309 195.17C626.469 195.17 636.759 198.46 644.179 205.04C651.599 211.62 655.309 220.44 655.309 231.5V258.17ZM613.309 224.99C611.069 224.99 609.249 225.83 607.849 227.51C606.589 229.19 605.959 231.43 605.959 234.23V240.74C605.959 241.44 606.309 241.79 607.009 241.79H619.399C620.099 241.79 620.449 241.44 620.449 240.74V234.23C620.449 231.57 619.749 229.4 618.349 227.72C617.089 225.9 615.409 224.99 613.309 224.99ZM702.025 195.17C714.905 195.17 725.265 198.39 733.105 204.83C741.085 211.27 745.075 219.74 745.075 230.24V302.9C745.075 303.6 744.795 304.23 744.235 304.79C743.815 305.21 743.255 305.42 742.555 305.42H712.735C712.035 305.42 711.405 305.21 710.845 304.79C710.425 304.23 710.215 303.6 710.215 302.9V297.86C710.215 297.44 710.075 297.23 709.795 297.23C709.515 297.09 709.235 297.23 708.955 297.65C704.195 303.95 696.775 307.1 686.695 307.1C667.375 307.1 657.715 296.11 657.715 274.13C657.715 264.75 659.465 257.61 662.965 252.71C666.465 247.81 671.225 244.59 677.245 243.05C683.405 241.37 691.245 240.53 700.765 240.53H709.165C709.865 240.53 710.215 240.18 710.215 239.48V234.44C710.215 231.64 709.445 229.4 707.905 227.72C706.365 225.9 704.405 224.99 702.025 224.99C700.205 224.99 698.665 225.55 697.405 226.67C696.285 227.65 695.515 229.12 695.095 231.08C694.955 232.76 694.115 233.6 692.575 233.6L661.915 233.39C660.235 233.39 659.395 232.55 659.395 230.87C660.095 219.81 664.295 211.13 671.995 204.83C679.835 198.39 689.845 195.17 702.025 195.17ZM700.765 281.27C703.145 281.27 705.315 280.5 707.275 278.96C709.235 277.28 710.215 275.18 710.215 272.66V264.89C710.215 264.19 709.865 263.84 709.165 263.84H702.865C700.065 263.84 697.755 264.68 695.935 266.36C694.255 268.04 693.415 270.28 693.415 273.08C693.415 275.74 694.115 277.77 695.515 279.17C696.915 280.57 698.665 281.27 700.765 281.27ZM31.4962 463.42C29.9562 463.42 29.0462 462.65 28.7662 461.11L0.206178 319.15L-0.00382183 318.31C-0.00382183 317.05 0.766178 316.42 2.30618 316.42H33.1762C34.8562 316.42 35.7662 317.19 35.9062 318.73L45.3562 387.82C45.4962 388.24 45.7062 388.45 45.9862 388.45C46.2662 388.45 46.4762 388.24 46.6162 387.82L56.0662 318.73C56.2062 317.19 57.1162 316.42 58.7962 316.42H83.3662C85.0462 316.42 85.9562 317.19 86.0962 318.73L96.5962 387.82C96.7362 388.24 96.9462 388.45 97.2262 388.45C97.5062 388.45 97.6462 388.24 97.6462 387.82L106.256 318.73C106.396 317.19 107.236 316.42 108.776 316.42H139.016C140.836 316.42 141.606 317.33 141.326 319.15L114.236 461.11C114.096 462.65 113.186 463.42 111.506 463.42H84.6262C82.9462 463.42 82.0362 462.65 81.8962 461.11L71.3962 389.29C71.2562 388.87 70.9762 388.66 70.5562 388.66C70.2762 388.66 70.1362 388.87 70.1362 389.29L60.8962 461.11C60.7562 462.65 59.9162 463.42 58.3762 463.42H31.4962ZM218.879 416.17C218.879 416.87 218.599 417.5 218.039 418.06C217.619 418.48 217.059 418.69 216.359 418.69H170.579C169.879 418.69 169.529 419.04 169.529 419.74V426.04C169.529 428.84 170.159 431.08 171.419 432.76C172.819 434.44 174.639 435.28 176.879 435.28C178.839 435.28 180.449 434.58 181.709 433.18C182.969 431.78 183.809 430.03 184.229 427.93C184.369 426.39 185.279 425.62 186.959 425.62L215.939 427.3C216.639 427.3 217.199 427.58 217.619 428.14C218.179 428.56 218.389 429.19 218.249 430.03C216.989 453.41 203.199 465.1 176.879 465.1C163.579 465.1 153.219 461.95 145.799 455.65C138.379 449.21 134.669 440.25 134.669 428.77V389.5C134.669 378.58 138.379 369.83 145.799 363.25C153.359 356.53 163.719 353.17 176.879 353.17C190.039 353.17 200.329 356.46 207.749 363.04C215.169 369.62 218.879 378.44 218.879 389.5V416.17ZM176.879 382.99C174.639 382.99 172.819 383.83 171.419 385.51C170.159 387.19 169.529 389.43 169.529 392.23V398.74C169.529 399.44 169.879 399.79 170.579 399.79H182.969C183.669 399.79 184.019 399.44 184.019 398.74V392.23C184.019 389.57 183.319 387.4 181.919 385.72C180.659 383.9 178.979 382.99 176.879 382.99ZM280.469 353.17C299.649 353.17 309.239 365.28 309.239 389.5V428.77C309.239 452.99 299.649 465.1 280.469 465.1C272.349 465.1 265.979 462.16 261.359 456.28C261.079 456 260.799 455.93 260.519 456.07C260.239 456.07 260.099 456.28 260.099 456.7V460.9C260.099 461.6 259.819 462.23 259.259 462.79C258.839 463.21 258.279 463.42 257.579 463.42H227.759C227.059 463.42 226.429 463.21 225.869 462.79C225.449 462.23 225.239 461.6 225.239 460.9V318.94C225.239 318.24 225.449 317.68 225.869 317.26C226.429 316.7 227.059 316.42 227.759 316.42H257.579C258.279 316.42 258.839 316.7 259.259 317.26C259.819 317.68 260.099 318.24 260.099 318.94V362.2C260.099 362.48 260.169 362.62 260.309 362.62C260.729 362.62 261.569 361.99 262.829 360.73C267.309 355.69 273.189 353.17 280.469 353.17ZM274.379 392.23C274.379 389.43 273.749 387.19 272.489 385.51C271.229 383.83 269.549 382.99 267.449 382.99C265.209 382.99 263.389 383.83 261.989 385.51C260.729 387.19 260.099 389.43 260.099 392.23V426.04C260.099 428.84 260.729 431.08 261.989 432.76C263.389 434.44 265.209 435.28 267.449 435.28C269.549 435.28 271.229 434.44 272.489 432.76C273.749 431.08 274.379 428.84 274.379 426.04V392.23ZM357.817 463.42C357.117 463.42 356.487 463.21 355.927 462.79C355.507 462.23 355.297 461.6 355.297 460.9V318.94C355.297 318.24 355.507 317.68 355.927 317.26C356.487 316.7 357.117 316.42 357.817 316.42H397.927C411.367 316.42 422.147 320.2 430.267 327.76C438.387 335.32 442.447 345.33 442.447 357.79V422.05C442.447 434.51 438.387 444.52 430.267 452.08C422.147 459.64 411.367 463.42 397.927 463.42H357.817ZM390.157 432.55C390.157 433.25 390.507 433.6 391.207 433.6L397.087 433.39C400.027 433.25 402.477 431.99 404.437 429.61C406.397 427.09 407.447 423.8 407.587 419.74V360.1C407.587 355.9 406.607 352.54 404.647 350.02C402.687 347.5 400.097 346.24 396.877 346.24H391.207C390.507 346.24 390.157 346.59 390.157 347.29V432.55ZM533.895 416.17C533.895 416.87 533.615 417.5 533.055 418.06C532.635 418.48 532.075 418.69 531.375 418.69H485.595C484.895 418.69 484.545 419.04 484.545 419.74V426.04C484.545 428.84 485.175 431.08 486.435 432.76C487.835 434.44 489.655 435.28 491.895 435.28C493.855 435.28 495.465 434.58 496.725 433.18C497.985 431.78 498.825 430.03 499.245 427.93C499.385 426.39 500.295 425.62 501.975 425.62L530.955 427.3C531.655 427.3 532.215 427.58 532.635 428.14C533.195 428.56 533.405 429.19 533.265 430.03C532.005 453.41 518.215 465.1 491.895 465.1C478.595 465.1 468.235 461.95 460.815 455.65C453.395 449.21 449.685 440.25 449.685 428.77V389.5C449.685 378.58 453.395 369.83 460.815 363.25C468.375 356.53 478.735 353.17 491.895 353.17C505.055 353.17 515.345 356.46 522.765 363.04C530.185 369.62 533.895 378.44 533.895 389.5V416.17ZM491.895 382.99C489.655 382.99 487.835 383.83 486.435 385.51C485.175 387.19 484.545 389.43 484.545 392.23V398.74C484.545 399.44 484.895 399.79 485.595 399.79H497.985C498.685 399.79 499.035 399.44 499.035 398.74V392.23C499.035 389.57 498.335 387.4 496.935 385.72C495.675 383.9 493.995 382.99 491.895 382.99ZM579.736 465.1C566.996 465.1 556.846 462.09 549.286 456.07C541.726 449.91 537.946 441.86 537.946 431.92V430.66C537.946 429.96 538.156 429.4 538.576 428.98C539.136 428.42 539.766 428.14 540.466 428.14H568.606C569.306 428.14 569.866 428.42 570.286 428.98C570.846 429.4 571.126 429.96 571.126 430.66V431.08C571.126 433.6 571.966 435.63 573.646 437.17C575.466 438.57 577.426 439.27 579.526 439.27C581.486 439.27 583.026 438.71 584.146 437.59C585.266 436.33 585.826 434.79 585.826 432.97C585.826 430.45 584.636 428.56 582.256 427.3C579.876 425.9 576.096 424.36 570.916 422.68L566.296 421.21C548.236 415.05 539.206 403.85 539.206 387.61C539.206 376.97 542.776 368.57 549.916 362.41C557.056 356.25 566.576 353.17 578.476 353.17C590.656 353.17 600.386 356.53 607.666 363.25C614.946 369.83 618.586 378.58 618.586 389.5C618.586 391.04 617.746 391.81 616.066 391.81H588.766C588.066 391.81 587.436 391.6 586.876 391.18C586.456 390.62 586.246 389.99 586.246 389.29V387.61C586.246 385.37 585.616 383.62 584.356 382.36C583.096 380.96 581.416 380.26 579.316 380.26C577.216 380.26 575.536 381.03 574.276 382.57C573.156 383.97 572.596 385.65 572.596 387.61C572.596 390.69 573.996 393.07 576.796 394.75C579.596 396.43 583.516 398.11 588.556 399.79C594.716 401.89 600.036 404.13 604.516 406.51C608.996 408.75 612.846 412.04 616.066 416.38C619.286 420.58 620.896 425.97 620.896 432.55C620.896 442.63 617.116 450.61 609.556 456.49C602.136 462.23 592.196 465.1 579.736 465.1ZM642.48 345.19C637.3 345.19 632.96 343.51 629.46 340.15C626.1 336.65 624.42 332.24 624.42 326.92C624.42 321.46 626.1 317.05 629.46 313.69C632.82 310.33 637.16 308.65 642.48 308.65C647.8 308.65 652.14 310.33 655.5 313.69C659 317.05 660.75 321.46 660.75 326.92C660.75 332.1 659 336.44 655.5 339.94C652.14 343.44 647.8 345.19 642.48 345.19ZM627.99 463.42C627.29 463.42 626.66 463.21 626.1 462.79C625.68 462.23 625.47 461.6 625.47 460.9V357.37C625.47 356.67 625.68 356.11 626.1 355.69C626.66 355.13 627.29 354.85 627.99 354.85H657.81C658.51 354.85 659.07 355.13 659.49 355.69C660.05 356.11 660.33 356.67 660.33 357.37V460.9C660.33 461.6 660.05 462.23 659.49 462.79C659.07 463.21 658.51 463.42 657.81 463.42H627.99ZM716.118 357.37C716.118 356.67 716.328 356.11 716.748 355.69C717.308 355.13 717.938 354.85 718.638 354.85H748.458C749.158 354.85 749.718 355.13 750.138 355.69C750.698 356.11 750.978 356.67 750.978 357.37V457.12C750.978 467.48 749.508 476.3 746.568 483.58C743.628 490.86 738.238 496.6 730.398 500.8C722.698 505.14 711.848 507.31 697.848 507.31C695.608 507.31 691.828 507.17 686.508 506.89C684.828 506.75 683.988 505.84 683.988 504.16V479.17C683.988 477.35 684.898 476.58 686.718 476.86L691.548 477.07C698.268 477.07 703.378 476.23 706.878 474.55C710.378 473.01 712.758 470.77 714.018 467.83C715.278 465.03 715.978 461.32 716.118 456.7C716.118 456.14 715.908 455.86 715.488 455.86C715.208 455.72 714.928 455.86 714.648 456.28C710.308 461.88 704.008 464.68 695.748 464.68C685.948 464.68 678.668 461.53 673.908 455.23C669.288 448.93 666.978 439.97 666.978 428.35V389.5C666.978 365.28 676.568 353.17 695.748 353.17C704.288 353.17 710.658 356.32 714.858 362.62C715.138 363.04 715.418 363.25 715.698 363.25C715.978 363.11 716.118 362.83 716.118 362.41V357.37ZM708.768 434.65C711.008 434.65 712.758 433.81 714.018 432.13C715.418 430.45 716.118 428.28 716.118 425.62V392.23C716.118 389.43 715.418 387.19 714.018 385.51C712.758 383.83 711.008 382.99 708.768 382.99C706.668 382.99 704.988 383.83 703.728 385.51C702.468 387.19 701.838 389.43 701.838 392.23V425.62C701.838 428.42 702.468 430.66 703.728 432.34C704.988 433.88 706.668 434.65 708.768 434.65ZM813.174 353.17C823.114 353.17 830.464 356.39 835.224 362.83C839.984 369.27 842.364 378.37 842.364 390.13V460.9C842.364 461.6 842.084 462.23 841.524 462.79C841.104 463.21 840.544 463.42 839.844 463.42H810.024C809.324 463.42 808.694 463.21 808.134 462.79C807.714 462.23 807.504 461.6 807.504 460.9V392.44C807.504 386.14 805.264 382.99 800.784 382.99C798.404 382.99 796.584 383.83 795.324 385.51C794.064 387.19 793.434 389.57 793.434 392.65V460.9C793.434 461.6 793.154 462.23 792.594 462.79C792.174 463.21 791.614 463.42 790.914 463.42H761.094C760.394 463.42 759.764 463.21 759.204 462.79C758.784 462.23 758.574 461.6 758.574 460.9V357.37C758.574 356.67 758.784 356.11 759.204 355.69C759.764 355.13 760.394 354.85 761.094 354.85H790.914C791.614 354.85 792.174 355.13 792.594 355.69C793.154 356.11 793.434 356.67 793.434 357.37V361.57C793.434 361.85 793.574 361.99 793.854 361.99C794.414 361.99 794.974 361.57 795.534 360.73C799.734 355.69 805.614 353.17 813.174 353.17ZM933.1 416.17C933.1 416.87 932.82 417.5 932.26 418.06C931.84 418.48 931.28 418.69 930.58 418.69H884.8C884.1 418.69 883.75 419.04 883.75 419.74V426.04C883.75 428.84 884.38 431.08 885.64 432.76C887.04 434.44 888.86 435.28 891.1 435.28C893.06 435.28 894.67 434.58 895.93 433.18C897.19 431.78 898.03 430.03 898.45 427.93C898.59 426.39 899.5 425.62 901.18 425.62L930.16 427.3C930.86 427.3 931.42 427.58 931.84 428.14C932.4 428.56 932.61 429.19 932.47 430.03C931.21 453.41 917.42 465.1 891.1 465.1C877.8 465.1 867.44 461.95 860.02 455.65C852.6 449.21 848.89 440.25 848.89 428.77V389.5C848.89 378.58 852.6 369.83 860.02 363.25C867.58 356.53 877.94 353.17 891.1 353.17C904.26 353.17 914.55 356.46 921.97 363.04C929.39 369.62 933.1 378.44 933.1 389.5V416.17ZM891.1 382.99C888.86 382.99 887.04 383.83 885.64 385.51C884.38 387.19 883.75 389.43 883.75 392.23V398.74C883.75 399.44 884.1 399.79 884.8 399.79H897.19C897.89 399.79 898.24 399.44 898.24 398.74V392.23C898.24 389.57 897.54 387.4 896.14 385.72C894.88 383.9 893.2 382.99 891.1 382.99ZM992.381 353.38C995.881 353.38 998.891 354.15 1001.41 355.69C1002.39 356.53 1002.81 357.58 1002.67 358.84L997.841 388.45C997.701 389.99 996.721 390.55 994.901 390.13C992.941 389.57 991.191 389.29 989.651 389.29C987.271 389.29 985.031 389.71 982.931 390.55C980.411 391.39 978.311 393.14 976.631 395.8C975.091 398.46 974.321 401.4 974.321 404.62V460.69C974.321 461.39 974.041 462.02 973.481 462.58C973.061 463 972.501 463.21 971.801 463.21H941.981C941.281 463.21 940.651 463 940.091 462.58C939.671 462.02 939.461 461.39 939.461 460.69V357.37C939.461 356.67 939.671 356.11 940.091 355.69C940.651 355.13 941.281 354.85 941.981 354.85H971.801C972.501 354.85 973.061 355.13 973.481 355.69C974.041 356.11 974.321 356.67 974.321 357.37V364.09C974.321 364.65 974.391 365 974.531 365.14C974.811 365.14 975.091 364.93 975.371 364.51C979.151 357.09 984.821 353.38 992.381 353.38Z" fill="#F4F5F5"/>
</svg>
